<svg width="20" height="20" viewBox="0 0 20 20" fill="none" xmlns="http://www.w3.org/2000/svg">
<path d="M9.31501 16.3075C9.39146 16.4185 9.49375 16.5093 9.61308 16.572C9.73241 16.6348 9.8652 16.6675 10 16.6675C10.1348 16.6675 10.2676 16.6348 10.3869 16.572C10.5063 16.5093 10.6086 16.4185 10.685 16.3075L18.185 5.47416C18.2718 5.34921 18.3227 5.20286 18.3322 5.051C18.3417 4.89915 18.3094 4.7476 18.2387 4.61283C18.1681 4.47805 18.0619 4.3652 17.9317 4.28655C17.8015 4.20789 17.6522 4.16643 17.5 4.16667H2.50001C2.34821 4.16729 2.19946 4.20929 2.06974 4.28813C1.94003 4.36698 1.83426 4.4797 1.76382 4.61416C1.69337 4.74862 1.66091 4.89974 1.66993 5.05127C1.67895 5.2028 1.72911 5.34901 1.81501 5.47416L9.31501 16.3075Z" fill="black"/>
</svg>
