<svg width="96" height="17" viewBox="0 0 96 17" fill="none" xmlns="http://www.w3.org/2000/svg">
<path d="M33.0283 4.94709C32.6568 4.57757 32.2118 4.3935 31.6931 4.39489L25.9132 4.41027C25.3945 4.41165 24.9504 4.59808 24.5809 4.96957C24.1929 5.35963 24.009 5.84177 24.029 6.416C24.0846 6.41585 24.2583 6.41307 24.55 6.40766C24.8418 6.40226 25.0409 6.40173 25.1474 6.40608C25.254 6.41042 25.4115 6.42853 25.62 6.46039C25.8285 6.49226 26.0069 6.54967 26.1554 6.63264C26.3038 6.71561 26.4476 6.82638 26.5869 6.96495C26.9584 7.33446 27.1449 7.77857 27.1462 8.29727C27.1476 8.81597 26.9636 9.26106 26.594 9.63255C26.4555 9.77186 26.3122 9.88339 26.1642 9.96715C26.0162 10.0509 25.8381 10.1093 25.6298 10.1422C25.4215 10.1752 25.264 10.1942 25.1575 10.1991C25.051 10.204 24.8519 10.2045 24.5601 10.2007C24.2683 10.1968 24.0946 10.195 24.0391 10.1951C24.0221 10.788 24.2087 11.2784 24.5987 11.6664C24.9702 12.0359 25.4153 12.2199 25.934 12.2186L31.6722 12.2172C32.1724 12.2159 32.6118 12.0248 32.9906 11.644C33.3601 11.2725 33.5534 10.8367 33.5706 10.3365L33.5737 6.26555C33.5723 5.74685 33.3905 5.30736 33.0283 4.94709ZM13.4658 4.97136C13.0943 4.60184 12.6492 4.41778 12.1305 4.41916L6.39238 4.42053C5.87368 4.42191 5.42957 4.60835 5.06006 4.97983C4.69978 5.34203 4.51107 5.78251 4.49393 6.30126L4.49087 10.3722C4.49225 10.8909 4.67404 11.3304 5.03624 11.6906C5.40772 12.0602 5.85282 12.2442 6.37152 12.2428L12.1513 12.2275C12.6515 12.2261 13.091 12.0351 13.4697 11.6543C13.8577 11.2642 14.0463 10.7867 14.0356 10.2217C13.98 10.2219 13.8063 10.2247 13.5146 10.2301C13.2228 10.2355 13.0237 10.236 12.9171 10.2316C12.8106 10.2273 12.6531 10.2092 12.4446 10.1773C12.2361 10.1455 12.0576 10.0881 11.9092 10.0051C11.7608 9.92211 11.6169 9.81135 11.4776 9.67278C11.1061 9.30326 10.9197 8.85916 10.9183 8.34046C10.9169 7.82175 11.101 7.37666 11.4705 7.00517C11.6091 6.86587 11.7524 6.75433 11.9003 6.67058C12.0483 6.58682 12.2265 6.52845 12.4348 6.49548C12.6431 6.46251 12.8005 6.44356 12.907 6.43865C13.0135 6.43373 13.2127 6.4332 13.5045 6.43706C13.7962 6.44091 13.9699 6.44277 14.0255 6.44262C14.0424 5.84977 13.8559 5.35935 13.4658 4.97136ZM35.6888 2.27238C36.8033 3.38093 37.3533 4.71327 37.339 6.26943L37.3359 10.3403C37.34 11.8779 36.7878 13.2039 35.6792 14.3184C34.5614 15.4421 33.2245 15.9968 31.6683 15.9824L25.9301 15.9838C24.3926 15.9879 23.0666 15.4357 21.9521 14.3271C20.8098 13.1909 20.2457 11.8169 20.26 10.2052L17.8147 10.2117C17.8375 11.8233 17.2854 13.1956 16.1584 14.3287C15.0498 15.4431 13.7175 16.0024 12.1614 16.0066L6.38157 16.0219C4.82547 16.0261 3.49019 15.4739 2.37573 14.3653C1.26127 13.2568 0.711233 11.9244 0.725617 10.3683L0.728677 6.29739C0.724586 4.75981 1.27681 3.43379 2.38536 2.31933C3.50314 1.19558 4.8401 0.640901 6.39626 0.655285L12.1344 0.653909C13.672 0.649816 14.998 1.20204 16.1125 2.31059C17.2548 3.44684 17.8188 4.82084 17.8046 6.43256L20.2499 6.42605C20.2271 4.81443 20.7792 3.4421 21.9062 2.30906C23.0148 1.1946 24.3471 0.635302 25.9032 0.631161L31.683 0.61578C33.2391 0.611639 34.5744 1.16384 35.6888 2.27238Z" fill="black"/>
<path d="M52.0604 4.90692C51.6889 4.53741 51.2438 4.35334 50.7251 4.35472L44.9453 4.3701C44.4266 4.37148 43.9825 4.55792 43.613 4.9294C43.225 5.31946 43.041 5.80161 43.0611 6.37583C43.1167 6.37569 43.2903 6.37291 43.5821 6.3675C43.8738 6.36209 44.073 6.36156 44.1795 6.36591C44.286 6.37026 44.4436 6.38836 44.652 6.42023C44.8605 6.45209 45.039 6.50951 45.1874 6.59248C45.3358 6.67544 45.4797 6.78621 45.619 6.92478C45.9905 7.2943 46.1769 7.7384 46.1783 8.2571C46.1797 8.77581 45.9956 9.2209 45.6261 9.59239C45.4875 9.73169 45.3443 9.84323 45.1963 9.92698C45.0483 10.0107 44.8702 10.0691 44.6618 10.1021C44.4535 10.1351 44.2961 10.154 44.1896 10.1589C44.0831 10.1638 43.884 10.1644 43.5922 10.1605C43.3004 10.1566 43.1267 10.1548 43.0711 10.1549C43.0542 10.7478 43.2407 11.2382 43.6308 11.6262C44.0023 11.9957 44.4474 12.1798 44.9661 12.1784L50.7043 12.177C51.2044 12.1757 51.6439 11.9846 52.0226 11.6039C52.3922 11.2324 52.5855 10.7965 52.6027 10.2963L52.6058 6.22539C52.6044 5.70669 52.4226 5.2672 52.0604 4.90692ZM32.4979 4.93119C32.1264 4.56168 31.6813 4.37761 31.1626 4.37899L25.4244 4.38037C24.9057 4.38175 24.4616 4.56818 24.0921 4.93967C23.7318 5.30187 23.5431 5.74234 23.526 6.26109L23.5229 10.332C23.5243 10.8507 23.7061 11.2902 24.0683 11.6505C24.4398 12.02 24.8849 12.2041 25.4036 12.2027L31.1834 12.1873C31.6836 12.186 32.123 11.9949 32.5018 11.6141C32.8898 11.2241 33.0784 10.7466 33.0676 10.1816C33.012 10.1817 32.8384 10.1845 32.5466 10.1899C32.2549 10.1953 32.0557 10.1958 31.9492 10.1915C31.8427 10.1871 31.6851 10.169 31.4767 10.1372C31.2682 10.1053 31.0897 10.0479 30.9413 9.96492C30.7929 9.88195 30.649 9.77118 30.5097 9.63261C30.1382 9.2631 29.9518 8.81899 29.9504 8.30029C29.949 7.78159 30.1331 7.3365 30.5026 6.96501C30.6412 6.8257 30.7844 6.71417 30.9324 6.63041C31.0804 6.54665 31.2585 6.48829 31.4669 6.45532C31.6752 6.42234 31.8326 6.4034 31.9391 6.39848C32.0456 6.39357 32.2447 6.39304 32.5365 6.39689C32.8283 6.40075 33.002 6.4026 33.0576 6.40245C33.0745 5.8096 32.888 5.31918 32.4979 4.93119ZM54.7209 2.23222C55.8354 3.34076 56.3854 4.67311 56.371 6.22926L56.368 10.3002C56.372 11.8378 55.8198 13.1638 54.7113 14.2782C53.5935 15.402 52.2565 15.9567 50.7004 15.9423L44.9622 15.9437C43.4246 15.9477 42.0986 15.3955 40.9842 14.287C39.8418 13.1507 39.2778 11.7767 39.292 10.165L36.8467 10.1715C36.8695 11.7831 36.3174 13.1555 35.1904 14.2885C34.0819 15.403 32.7496 15.9623 31.1934 15.9664L25.4136 15.9818C23.8575 15.9859 22.5223 15.4337 21.4078 14.3252C20.2933 13.2166 19.7433 11.8843 19.7577 10.3281L19.7607 6.25722C19.7567 4.71964 20.3089 3.39362 21.4174 2.27916C22.5352 1.15542 23.8722 0.600736 25.4283 0.61512L31.1665 0.613744C32.7041 0.609651 34.0301 1.16188 35.1445 2.27042C36.2869 3.40668 36.8509 4.78067 36.8367 6.3924L39.282 6.38589C39.2592 4.77426 39.8113 3.40193 40.9383 2.2689C42.0468 1.15444 43.3791 0.595137 44.9352 0.590996L50.7151 0.575615C52.2712 0.571474 53.6064 1.12367 54.7209 2.23222Z" fill="black"/>
<path d="M72.4951 4.90692C72.1236 4.53741 71.6785 4.35334 71.1598 4.35472L65.38 4.3701C64.8613 4.37148 64.4172 4.55792 64.0477 4.9294C63.6597 5.31946 63.4757 5.80161 63.4958 6.37583C63.5514 6.37569 63.725 6.37291 64.0168 6.3675C64.3085 6.36209 64.5077 6.36156 64.6142 6.36591C64.7207 6.37026 64.8783 6.38836 65.0868 6.42023C65.2952 6.45209 65.4737 6.50951 65.6221 6.59248C65.7705 6.67544 65.9144 6.78621 66.0537 6.92478C66.4252 7.2943 66.6116 7.7384 66.613 8.2571C66.6144 8.77581 66.4303 9.2209 66.0608 9.59239C65.9223 9.73169 65.779 9.84323 65.631 9.92698C65.483 10.0107 65.3049 10.0691 65.0965 10.1021C64.8882 10.1351 64.7308 10.154 64.6243 10.1589C64.5178 10.1638 64.3187 10.1644 64.0269 10.1605C63.7351 10.1566 63.5614 10.1548 63.5058 10.1549C63.4889 10.7478 63.6755 11.2382 64.0655 11.6262C64.437 11.9957 64.8821 12.1798 65.4008 12.1784L71.139 12.177C71.6391 12.1757 72.0786 11.9846 72.4574 11.6039C72.8269 11.2324 73.0202 10.7965 73.0374 10.2963L73.0405 6.22539C73.0391 5.70669 72.8573 5.2672 72.4951 4.90692ZM52.9326 4.93119C52.5611 4.56168 52.116 4.37761 51.5973 4.37899L45.8592 4.38037C45.3405 4.38175 44.8963 4.56818 44.5268 4.93967C44.1666 5.30187 43.9778 5.74234 43.9607 6.26109L43.9576 10.332C43.959 10.8507 44.1408 11.2902 44.503 11.6505C44.8745 12.02 45.3196 12.2041 45.8383 12.2027L51.6181 12.1873C52.1183 12.186 52.5577 11.9949 52.9365 11.6141C53.3245 11.2241 53.5131 10.7466 53.5023 10.1816C53.4468 10.1817 53.2731 10.1845 52.9813 10.1899C52.6896 10.1953 52.4904 10.1958 52.3839 10.1915C52.2774 10.1871 52.1199 10.169 51.9114 10.1372C51.7029 10.1053 51.5244 10.0479 51.376 9.96492C51.2276 9.88195 51.0837 9.77118 50.9444 9.63261C50.5729 9.2631 50.3865 8.81899 50.3851 8.30029C50.3837 7.78159 50.5678 7.3365 50.9373 6.96501C51.0759 6.8257 51.2191 6.71417 51.3671 6.63041C51.5151 6.54665 51.6932 6.48829 51.9016 6.45532C52.1099 6.42234 52.2673 6.4034 52.3738 6.39848C52.4803 6.39357 52.6795 6.39304 52.9712 6.39689C53.263 6.40075 53.4367 6.4026 53.4923 6.40245C53.5092 5.8096 53.3227 5.31918 52.9326 4.93119ZM75.1556 2.23222C76.2701 3.34076 76.8201 4.67311 76.8057 6.22926L76.8027 10.3002C76.8068 11.8378 76.2545 13.1638 75.146 14.2782C74.0282 15.402 72.6912 15.9567 71.1351 15.9423L65.3969 15.9437C63.8593 15.9477 62.5333 15.3955 61.4189 14.287C60.2765 13.1507 59.7125 11.7767 59.7267 10.165L57.2814 10.1715C57.3042 11.7831 56.7521 13.1555 55.6251 14.2885C54.5166 15.403 53.1843 15.9623 51.6282 15.9664L45.8483 15.9818C44.2922 15.9859 42.957 15.4337 41.8425 14.3252C40.728 13.2166 40.178 11.8843 40.1924 10.3281L40.1954 6.25722C40.1914 4.71964 40.7436 3.39362 41.8521 2.27916C42.9699 1.15542 44.3069 0.600736 45.863 0.61512L51.6012 0.613744C53.1388 0.609651 54.4648 1.16188 55.5793 2.27042C56.7216 3.40668 57.2856 4.78067 57.2714 6.3924L59.7167 6.38589C59.6939 4.77426 60.246 3.40193 61.373 2.2689C62.4815 1.15444 63.8139 0.595137 65.37 0.590996L71.1498 0.575615C72.7059 0.571474 74.0411 1.12367 75.1556 2.23222Z" fill="black"/>
<path d="M91.5678 4.90692C91.1963 4.53741 90.7512 4.35334 90.2325 4.35472L84.4527 4.3701C83.934 4.37148 83.4899 4.55792 83.1204 4.9294C82.7324 5.31946 82.5484 5.80161 82.5685 6.37583C82.6241 6.37569 82.7977 6.37291 83.0895 6.3675C83.3812 6.36209 83.5804 6.36156 83.6869 6.36591C83.7934 6.37026 83.951 6.38836 84.1594 6.42023C84.3679 6.45209 84.5464 6.50951 84.6948 6.59248C84.8432 6.67544 84.9871 6.78621 85.1264 6.92478C85.4979 7.2943 85.6843 7.7384 85.6857 8.2571C85.6871 8.77581 85.503 9.2209 85.1335 9.59239C84.9949 9.73169 84.8517 9.84323 84.7037 9.92698C84.5557 10.0107 84.3776 10.0691 84.1692 10.1021C83.9609 10.1351 83.8035 10.154 83.697 10.1589C83.5905 10.1638 83.3914 10.1644 83.0996 10.1605C82.8078 10.1566 82.6341 10.1548 82.5785 10.1549C82.5616 10.7478 82.7481 11.2382 83.1382 11.6262C83.5097 11.9957 83.9548 12.1798 84.4735 12.1784L90.2117 12.177C90.7118 12.1757 91.1513 11.9846 91.53 11.6039C91.8996 11.2324 92.0929 10.7965 92.1101 10.2963L92.1132 6.22539C92.1118 5.70669 91.93 5.2672 91.5678 4.90692ZM72.0053 4.93119C71.6338 4.56168 71.1887 4.37761 70.67 4.37899L64.9318 4.38037C64.4131 4.38175 63.969 4.56818 63.5995 4.93967C63.2392 5.30187 63.0505 5.74234 63.0334 6.26109L63.0303 10.332C63.0317 10.8507 63.2135 11.2902 63.5757 11.6505C63.9472 12.02 64.3923 12.2041 64.911 12.2027L70.6908 12.1873C71.191 12.186 71.6304 11.9949 72.0092 11.6141C72.3972 11.2241 72.5858 10.7466 72.575 10.1816C72.5194 10.1817 72.3458 10.1845 72.054 10.1899C71.7623 10.1953 71.5631 10.1958 71.4566 10.1915C71.3501 10.1871 71.1925 10.169 70.9841 10.1372C70.7756 10.1053 70.5971 10.0479 70.4487 9.96492C70.3003 9.88195 70.1564 9.77118 70.0171 9.63261C69.6456 9.2631 69.4592 8.81899 69.4578 8.30029C69.4564 7.78159 69.6405 7.3365 70.01 6.96501C70.1486 6.8257 70.2918 6.71417 70.4398 6.63041C70.5878 6.54665 70.7659 6.48829 70.9743 6.45532C71.1826 6.42234 71.34 6.4034 71.4465 6.39848C71.553 6.39357 71.7521 6.39304 72.0439 6.39689C72.3357 6.40075 72.5094 6.4026 72.565 6.40245C72.5819 5.8096 72.3954 5.31918 72.0053 4.93119ZM94.2283 2.23222C95.3428 3.34076 95.8928 4.67311 95.8784 6.22926L95.8754 10.3002C95.8794 11.8378 95.3272 13.1638 94.2187 14.2782C93.1009 15.402 91.7639 15.9567 90.2078 15.9423L84.4696 15.9437C82.932 15.9477 81.606 15.3955 80.4916 14.287C79.3492 13.1507 78.7852 11.7767 78.7994 10.165L76.3541 10.1715C76.3769 11.7831 75.8248 13.1555 74.6978 14.2885C73.5893 15.403 72.257 15.9623 70.7009 15.9664L64.921 15.9818C63.3649 15.9859 62.0297 15.4337 60.9152 14.3252C59.8007 13.2166 59.2507 11.8843 59.2651 10.3281L59.2681 6.25722C59.2641 4.71964 59.8163 3.39362 60.9248 2.27916C62.0426 1.15542 63.3796 0.600736 64.9357 0.61512L70.6739 0.613744C72.2115 0.609651 73.5375 1.16188 74.6519 2.27042C75.7943 3.40668 76.3583 4.78067 76.3441 6.3924L78.7894 6.38589C78.7666 4.77426 79.3187 3.40193 80.4457 2.2689C81.5542 1.15444 82.8865 0.595137 84.4426 0.590996L90.2225 0.575615C91.7786 0.571474 93.1138 1.12367 94.2283 2.23222Z" fill="black"/>
</svg>
